<?xml version="1.0" encoding="utf-8"?>
<!-- Generator: Adobe Illustrator 16.0.0, SVG Export Plug-In . SVG Version: 6.00 Build 0)  -->
<!DOCTYPE svg PUBLIC "-//W3C//DTD SVG 1.1//EN" "http://www.w3.org/Graphics/SVG/1.1/DTD/svg11.dtd">
<svg version="1.1" id="All_Icons" xmlns="http://www.w3.org/2000/svg" xmlns:xlink="http://www.w3.org/1999/xlink" x="0px" y="0px"
	 width="57px" height="48px" viewBox="0 0 57 48" enable-background="new 0 0 57 48" xml:space="preserve">
<g>
	<circle fill="#FFFFFF" cx="28.776" cy="24.257" r="8.378"/>
	<rect x="27.433" y="8.652" fill="#FFFFFF" width="2.687" height="5.612"/>
	
		<rect x="19.57" y="11.83" transform="matrix(0.5001 0.866 -0.866 0.5001 22.5942 -12.7922)" fill="#FFFFFF" width="5.613" height="2.686"/>
	
		<rect x="14.886" y="16.515" transform="matrix(0.866 0.5 -0.5 0.866 11.2992 -6.4535)" fill="#FFFFFF" width="5.612" height="2.686"/>
	<rect x="13.17" y="22.914" fill="#FFFFFF" width="5.613" height="2.686"/>
	
		<rect x="16.349" y="27.851" transform="matrix(0.4999 0.8661 -0.8661 0.4999 35.4009 0.0099)" fill="#FFFFFF" width="2.686" height="5.612"/>
	
		<rect x="21.033" y="32.536" transform="matrix(0.866 0.5001 -0.5001 0.866 20.6721 -6.4535)" fill="#FFFFFF" width="2.686" height="5.612"/>
	<rect x="27.433" y="34.251" fill="#FFFFFF" width="2.686" height="5.612"/>
	
		<rect x="32.37" y="33.999" transform="matrix(0.4999 0.8661 -0.8661 0.4999 48.1982 -12.7913)" fill="#FFFFFF" width="5.612" height="2.686"/>
	
		<rect x="37.055" y="29.314" transform="matrix(0.866 0.5001 -0.5001 0.866 20.6724 -15.8247)" fill="#FFFFFF" width="5.613" height="2.686"/>
	<rect x="38.769" y="22.914" fill="#FFFFFF" width="5.612" height="2.686"/>
	
		<rect x="38.518" y="15.052" transform="matrix(0.4999 0.8661 -0.8661 0.4999 35.403 -25.5924)" fill="#FFFFFF" width="2.686" height="5.612"/>
	
		<rect x="33.833" y="10.366" transform="matrix(0.866 0.5001 -0.5001 0.866 11.3013 -15.8252)" fill="#FFFFFF" width="2.686" height="5.613"/>
</g>
</svg>
