<?xml version="1.0" encoding="utf-8"?>
<!-- Generator: Adobe Illustrator 16.0.0, SVG Export Plug-In . SVG Version: 6.00 Build 0)  -->
<!DOCTYPE svg PUBLIC "-//W3C//DTD SVG 1.1//EN" "http://www.w3.org/Graphics/SVG/1.1/DTD/svg11.dtd">
<svg version="1.1" xmlns="http://www.w3.org/2000/svg" xmlns:xlink="http://www.w3.org/1999/xlink" x="0px" y="0px" width="57.5px"
	 height="48px" viewBox="0 0 57.5 48" enable-background="new 0 0 57.5 48" xml:space="preserve">
<g id="Layer_2" display="none">
	<rect display="inline" width="57.5" height="48"/>
</g>
<g id="All_Icons">
	<g>
		<g>
			<path fill="#FFFFFF" d="M40.012,18.422c-0.428,0-0.85,0.037-1.264,0.11c-0.979-4.484-4.977-7.853-9.747-7.853
				c-4.775,0-8.773,3.371-9.75,7.857c-0.412-0.073-0.834-0.114-1.262-0.114c-4.02,0-7.291,3.271-7.291,7.291
				c0,4.02,3.271,7.291,7.291,7.291h22.02c4.021,0,7.291-3.271,7.291-7.291C47.303,21.693,44.032,18.422,40.012,18.422z
				 M17.99,29.55c-2.115,0-3.836-1.721-3.836-3.837c0-2.116,1.721-3.837,3.836-3.837c1.404,0,2.695,0.766,3.371,1.999l3.029-1.658
				c-0.48-0.875-1.123-1.627-1.879-2.225c0.334-3.287,3.117-5.86,6.49-5.86c3.597,0,6.522,2.926,6.522,6.523
				c0,1.477-0.481,2.87-1.393,4.027h4.002c0.371-0.834,0.619-1.721,0.746-2.635c0.363-0.112,0.742-0.172,1.131-0.172
				c2.115,0,3.836,1.721,3.836,3.837c0.002,2.117-1.719,3.838-3.834,3.838"/>
		</g>
	</g>
	<g>
		<g>
			<path fill="#FFFFFF" d="M21.121,23.772l-0.187,0.103c-0.144-0.261-0.319-0.496-0.513-0.713l-2.815,6.388h0.969L21.121,23.772z"/>
		</g>
		<g>
			<path fill="#FFFFFF" d="M22.592,20.436l2.26-5.127c-0.711,0.498-1.323,1.128-1.789,1.862l-0.772,1.753
				c-0.096,0.346-0.168,0.702-0.205,1.068C22.261,20.131,22.429,20.28,22.592,20.436z"/>
		</g>
		<g>
			<path fill="#FFFFFF" d="M17.563,21.876c-0.071,0-0.139,0.017-0.209,0.021l-2.747,6.232c0.201,0.245,0.426,0.466,0.68,0.655
				l3.011-6.829C18.058,21.908,17.813,21.876,17.563,21.876z"/>
		</g>
		<g>
			<path fill="#FFFFFF" d="M42.257,22.969l-2.9,6.581h0.229c0.266,0,0.524-0.027,0.774-0.079l2.514-5.701
				C42.699,23.478,42.499,23.205,42.257,22.969z"/>
		</g>
		<g>
			<path fill="#FFFFFF" d="M34.534,18.016c-0.152-0.343-0.331-0.671-0.537-0.979L28.481,29.55h0.969L34.534,18.016z"/>
		</g>
		<g>
			<path fill="#FFFFFF" d="M28.986,14.153c-0.137-0.009-0.272-0.021-0.412-0.021c-0.188,0-0.375,0.011-0.559,0.026L21.231,29.55
				H22.2L28.986,14.153z"/>
		</g>
		<g>
			<path fill="#FFFFFF" d="M40.062,21.923c-0.158-0.02-0.314-0.048-0.479-0.048s-0.325,0.017-0.485,0.037l-3.366,7.638H36.7
				L40.062,21.923z"/>
		</g>
		<g>
			<polygon fill="#FFFFFF" points="35.221,24.682 34.252,24.682 32.106,29.55 33.075,29.55 			"/>
		</g>
		<g>
			<path fill="#FFFFFF" d="M32.148,15.205c-0.248-0.163-0.509-0.306-0.778-0.434L24.856,29.55h0.969L32.148,15.205z"/>
		</g>
	</g>
</g>
<g id="Layer_3">
</g>
</svg>
