<?xml version="1.0" encoding="utf-8"?>
<!-- Generator: Adobe Illustrator 16.0.0, SVG Export Plug-In . SVG Version: 6.00 Build 0)  -->
<!DOCTYPE svg PUBLIC "-//W3C//DTD SVG 1.1//EN" "http://www.w3.org/Graphics/SVG/1.1/DTD/svg11.dtd">
<svg version="1.1" xmlns="http://www.w3.org/2000/svg" xmlns:xlink="http://www.w3.org/1999/xlink" x="0px" y="0px" width="57.5px"
	 height="48px" viewBox="0 0 57.5 48" enable-background="new 0 0 57.5 48" xml:space="preserve">
<g id="Layer_2" display="none">
	<rect display="inline" width="57.5" height="48"/>
</g>
<g id="All_Icons">
</g>
<g id="Layer_3">
	<g>
		<path fill="#FFFFFF" d="M40.012,18.422c-0.099,0-0.192,0.021-0.29,0.025c0.448,2.188,0.248,4.511-0.691,6.639l-0.915-0.404
			c1.149-2.604,1.112-5.572-0.034-8.131c-0.056-0.122-0.107-0.246-0.167-0.365c-0.032-0.064-0.069-0.126-0.103-0.19
			c-0.104-0.195-0.209-0.389-0.325-0.577c-0.005-0.008-0.01-0.015-0.015-0.023c-1.763-2.829-4.9-4.717-8.471-4.717
			c-4.42,0-8.169,2.891-9.478,6.878c0.817,0.155,1.615,0.431,2.37,0.833c1.455,0.775,2.619,1.935,3.385,3.348l-0.877,0.481
			c-1.073-1.974-2.995-3.309-5.148-3.689c0,0.002-0.001,0.003-0.001,0.005c-0.412-0.073-0.834-0.114-1.262-0.114
			c-4.02,0-7.291,3.271-7.291,7.291c0,4.02,3.271,7.291,7.291,7.291h22.02c4.021,0,7.291-3.271,7.291-7.291
			C47.303,21.693,44.032,18.422,40.012,18.422z"/>
	</g>
</g>
</svg>
