<?xml version="1.0" encoding="utf-8"?>
<!-- Generator: Adobe Illustrator 16.0.0, SVG Export Plug-In . SVG Version: 6.00 Build 0)  -->
<!DOCTYPE svg PUBLIC "-//W3C//DTD SVG 1.1//EN" "http://www.w3.org/Graphics/SVG/1.1/DTD/svg11.dtd">
<svg version="1.1" id="All_Icons" xmlns="http://www.w3.org/2000/svg" xmlns:xlink="http://www.w3.org/1999/xlink" x="0px" y="0px"
	 width="57.001px" height="48px" viewBox="0 0 57.001 48" enable-background="new 0 0 57.001 48" xml:space="preserve">
<g>
	<path fill="#FFFFFF" d="M39.511,18.422c-0.426,0-0.848,0.037-1.264,0.11c-0.975-4.484-4.975-7.853-9.746-7.853
		c-4.773,0-8.773,3.371-9.748,7.857c-0.414-0.073-0.834-0.114-1.262-0.114c-4.021,0-7.291,3.271-7.291,7.291
		c0,4.02,3.27,7.291,7.291,7.291h22.02c4.02,0,7.291-3.271,7.291-7.291C46.802,21.693,43.53,18.422,39.511,18.422z M39.511,29.55
		h-22.02c-2.117,0-3.838-1.721-3.838-3.837c0-2.116,1.721-3.837,3.838-3.837c1.402,0,2.693,0.766,3.369,1.999l3.029-1.658
		c-0.479-0.875-1.123-1.627-1.879-2.225c0.334-3.287,3.117-5.86,6.49-5.86c3.598,0,6.523,2.926,6.523,6.523
		c0,1.477-0.482,2.87-1.393,4.027h4.004c0.369-0.836,0.617-1.721,0.744-2.635c0.363-0.112,0.742-0.172,1.131-0.172
		c2.115,0,3.838,1.721,3.838,3.837C43.349,27.829,41.626,29.55,39.511,29.55z"/>
</g>
</svg>
