<?xml version="1.0" encoding="utf-8"?>
<!-- Generator: Adobe Illustrator 16.0.0, SVG Export Plug-In . SVG Version: 6.00 Build 0)  -->
<!DOCTYPE svg PUBLIC "-//W3C//DTD SVG 1.1//EN" "http://www.w3.org/Graphics/SVG/1.1/DTD/svg11.dtd">
<svg version="1.1" id="All_Icons" xmlns="http://www.w3.org/2000/svg" xmlns:xlink="http://www.w3.org/1999/xlink" x="0px" y="0px"
	 width="57px" height="48px" viewBox="0 0 57 48" enable-background="new 0 0 57 48" xml:space="preserve">
<g>
	<path fill="#FFFFFF" d="M39.509,16.422c-0.426,0-0.848,0.038-1.262,0.11c-0.977-4.484-4.975-7.853-9.748-7.853
		s-8.771,3.371-9.748,7.857c-0.412-0.073-0.834-0.114-1.262-0.114c-4.02,0-7.291,3.271-7.291,7.291c0,4.021,3.271,7.291,7.291,7.291
		h4.797V27.55h-4.797c-2.115,0-3.838-1.721-3.838-3.837c0-2.116,1.723-3.837,3.838-3.837c1.404,0,2.695,0.766,3.369,2l3.031-1.658
		c-0.48-0.876-1.123-1.627-1.879-2.225c0.332-3.286,3.115-5.859,6.488-5.859c3.598,0,6.523,2.926,6.523,6.523
		c0,1.477-0.48,2.87-1.391,4.027h4.002c0.371-0.836,0.619-1.721,0.744-2.635c0.365-0.112,0.744-0.172,1.133-0.173
		c2.115,0,3.836,1.722,3.836,3.837c0,2.116-1.721,3.837-3.836,3.837h-5.137v3.454h5.137c4.02,0,7.291-3.271,7.291-7.291
		C46.802,19.693,43.53,16.422,39.509,16.422z"/>
	<polygon fill="#FFFFFF" points="27.274,26.431 32.503,26.431 28.187,33.53 33.462,33.53 23.89,47.681 27.802,36.696 22.286,36.696 
			"/>
</g>
</svg>
