<?xml version="1.0" encoding="utf-8"?>
<!-- Generator: Adobe Illustrator 16.0.0, SVG Export Plug-In . SVG Version: 6.00 Build 0)  -->
<!DOCTYPE svg PUBLIC "-//W3C//DTD SVG 1.1//EN" "http://www.w3.org/Graphics/SVG/1.1/DTD/svg11.dtd">
<svg version="1.1" xmlns="http://www.w3.org/2000/svg" xmlns:xlink="http://www.w3.org/1999/xlink" x="0px" y="0px"
	 width="21.167px" height="30px" viewBox="0 0 21.167 30" enable-background="new 0 0 21.167 30" xml:space="preserve">
<g id="Layer_1">
</g>
<g id="Icon_option">
	<g>
		<path fill="#FFFFFF" d="M18.83,12.818c0.01-0.075,0.014-0.151,0.018-0.228l0.537-6.912l-5.768,3.595
			c-0.115,0.062-0.225,0.132-0.33,0.206L13.26,9.495l0.004,0.002c-0.91,0.643-1.503,1.699-1.503,2.897c0,1.96,1.587,3.55,3.548,3.55
			c1.803,0,3.289-1.346,3.516-3.088l0.004,0.002L18.83,12.818z"/>
		<path fill="#FFFFFF" d="M8.854,21.195c0.008-0.074,0.014-0.15,0.018-0.227l0.537-6.912L3.641,17.65
			c-0.115,0.063-0.225,0.133-0.33,0.207l-0.027,0.016l0.002,0.002c-0.908,0.643-1.504,1.699-1.504,2.896
			c0,1.961,1.59,3.551,3.551,3.551c1.803,0,3.289-1.346,3.516-3.088l0.002,0.002L8.854,21.195z"/>
	</g>
</g>
</svg>
