<?xml version="1.0" encoding="utf-8"?>
<!-- Generator: Adobe Illustrator 16.0.0, SVG Export Plug-In . SVG Version: 6.00 Build 0)  -->
<!DOCTYPE svg PUBLIC "-//W3C//DTD SVG 1.1//EN" "http://www.w3.org/Graphics/SVG/1.1/DTD/svg11.dtd">
<svg version="1.1" id="All_Icons" xmlns="http://www.w3.org/2000/svg" xmlns:xlink="http://www.w3.org/1999/xlink" x="0px" y="0px"
	 width="57.501px" height="48px" viewBox="0 0 57.501 48" enable-background="new 0 0 57.501 48" xml:space="preserve">
<g>
	<path fill="#FFFFFF" d="M34.108,16.422c-0.427,0-0.849,0.037-1.263,0.11c-0.977-4.484-4.975-7.853-9.748-7.853
		s-8.772,3.371-9.748,7.857c-0.412-0.073-0.834-0.114-1.262-0.114c-4.021,0-7.291,3.271-7.291,7.291c0,4.02,3.271,7.291,7.291,7.291
		h22.021c4.021,0,7.291-3.271,7.291-7.291C41.399,19.693,38.128,16.422,34.108,16.422z M34.108,27.55H12.087
		c-2.115,0-3.837-1.721-3.837-3.837c0-2.116,1.722-3.837,3.837-3.837c1.404,0,2.695,0.766,3.37,1.999l3.029-1.658
		c-0.479-0.875-1.122-1.627-1.879-2.225c0.333-3.286,3.116-5.859,6.489-5.859c3.598,0,6.524,2.926,6.524,6.523
		c0,1.477-0.481,2.87-1.392,4.027h4.002c0.37-0.836,0.618-1.721,0.744-2.635c0.365-0.112,0.744-0.172,1.132-0.172
		c2.116,0,3.837,1.721,3.837,3.837C37.945,25.829,36.224,27.55,34.108,27.55z"/>
	<rect x="32.292" y="4.206" fill="#FFFFFF" width="2.687" height="7.038"/>
	<rect x="32.292" y="36.309" fill="#FFFFFF" width="2.686" height="7.039"/>
	
		<rect x="38.141" y="36.335" transform="matrix(0.4999 0.8661 -0.8661 0.4999 53.4654 -17.2387)" fill="#FFFFFF" width="7.038" height="2.686"/>
	
		<rect x="44.016" y="30.459" transform="matrix(0.866 0.5001 -0.5001 0.866 22.274 -19.5092)" fill="#FFFFFF" width="7.039" height="2.686"/>
	<rect x="46.167" y="22.434" fill="#FFFFFF" width="7.038" height="2.686"/>
	
		<rect x="46.193" y="12.232" transform="matrix(0.4999 0.8661 -0.8661 0.4999 37.4169 -33.2938)" fill="#FFFFFF" width="2.686" height="7.038"/>
	
		<rect x="40.318" y="6.356" transform="matrix(0.866 0.5001 -0.5001 0.866 10.5215 -19.5097)" fill="#FFFFFF" width="2.686" height="7.038"/>
	<path fill="#FFFFFF" d="M25.023,34.092"/>
</g>
</svg>
