<?xml version="1.0" encoding="utf-8"?>
<!-- Generator: Adobe Illustrator 16.0.0, SVG Export Plug-In . SVG Version: 6.00 Build 0)  -->
<!DOCTYPE svg PUBLIC "-//W3C//DTD SVG 1.1//EN" "http://www.w3.org/Graphics/SVG/1.1/DTD/svg11.dtd">
<svg version="1.1" id="All_Icons" xmlns="http://www.w3.org/2000/svg" xmlns:xlink="http://www.w3.org/1999/xlink" x="0px" y="0px"
	 width="57.5px" height="48px" viewBox="0 0 57.5 48" enable-background="new 0 0 57.5 48" xml:space="preserve">
<g>
	<path d="M40.012,18.422c-0.428,0-0.85,0.037-1.264,0.11c-0.978-4.484-4.976-7.853-9.747-7.853c-4.775,0-8.773,3.371-9.75,7.857
		c-0.412-0.073-0.834-0.114-1.262-0.114c-4.02,0-7.291,3.271-7.291,7.291c0,4.02,3.271,7.291,7.291,7.291h22.02
		c4.021,0,7.291-3.271,7.291-7.291C47.303,21.693,44.032,18.422,40.012,18.422z M40.012,29.55H17.99
		c-2.115,0-3.836-1.721-3.836-3.837c0-2.116,1.721-3.837,3.836-3.837c1.404,0,2.695,0.766,3.371,1.999l3.029-1.658
		c-0.48-0.875-1.123-1.627-1.879-2.225c0.334-3.287,3.117-5.86,6.49-5.86c3.596,0,6.523,2.926,6.523,6.523
		c0,1.477-0.482,2.87-1.393,4.027h4.002c0.371-0.835,0.619-1.721,0.746-2.635c0.363-0.112,0.742-0.172,1.131-0.172
		c2.115,0,3.836,1.721,3.836,3.837C43.848,27.829,42.127,29.55,40.012,29.55z"/>
</g>
</svg>
