<?xml version="1.0" encoding="utf-8"?>
<!-- Generator: Adobe Illustrator 16.0.0, SVG Export Plug-In . SVG Version: 6.00 Build 0)  -->
<!DOCTYPE svg PUBLIC "-//W3C//DTD SVG 1.1//EN" "http://www.w3.org/Graphics/SVG/1.1/DTD/svg11.dtd">
<svg version="1.1" id="All_Icons" xmlns="http://www.w3.org/2000/svg" xmlns:xlink="http://www.w3.org/1999/xlink" x="0px" y="0px"
	 width="57px" height="48px" viewBox="0 0 57 48" enable-background="new 0 0 57 48" xml:space="preserve">
<path fill="#FFFFFF" d="M33.605,16.422c-0.426,0-0.848,0.037-1.262,0.11c-0.977-4.484-4.975-7.853-9.748-7.853
	s-8.773,3.371-9.748,7.857c-0.412-0.073-0.834-0.114-1.262-0.114c-4.02,0-7.291,3.271-7.291,7.291c0,4.021,3.271,7.291,7.291,7.291
	h4.797V27.55h-4.797c-2.115,0-3.838-1.721-3.838-3.837c0-2.116,1.723-3.837,3.838-3.837c1.404,0,2.695,0.766,3.369,1.999
	l3.029-1.658c-0.479-0.875-1.121-1.627-1.879-2.225c0.334-3.287,3.117-5.86,6.49-5.86c3.598,0,6.523,2.926,6.523,6.523
	c0,1.477-0.48,2.87-1.391,4.027h4.002c0.369-0.836,0.619-1.721,0.744-2.635c0.365-0.112,0.744-0.172,1.131-0.172
	c2.117,0,3.838,1.721,3.838,3.837c0,2.116-1.721,3.837-3.838,3.837h-5.135v3.454h5.135c4.021,0,7.291-3.271,7.291-7.291
	C40.896,19.693,37.627,16.422,33.605,16.422z"/>
<path fill="#FFFFFF" d="M25.66,34.042c0.01-0.075,0.014-0.151,0.018-0.228l0.537-6.912l-5.768,3.594
	c-0.115,0.062-0.225,0.132-0.33,0.206l-0.027,0.017l0.004,0.001c-0.91,0.643-1.504,1.7-1.504,2.897c0,1.96,1.588,3.55,3.549,3.55
	c1.803,0,3.289-1.346,3.516-3.087l0.004,0.001L25.66,34.042z"/>
<rect x="31.791" y="4.206" fill="#FFFFFF" width="2.686" height="7.038"/>
<rect x="31.791" y="36.309" fill="#FFFFFF" width="2.686" height="7.039"/>
<rect x="37.64" y="36.335" transform="matrix(0.5 0.866 -0.866 0.5 53.2083 -16.8063)" fill="#FFFFFF" width="7.039" height="2.686"/>
<rect x="43.515" y="30.459" transform="matrix(0.866 0.5001 -0.5001 0.866 22.2068 -19.2584)" fill="#FFFFFF" width="7.039" height="2.686"/>
<rect x="45.666" y="22.434" fill="#FFFFFF" width="7.039" height="2.686"/>
<rect x="45.692" y="12.232" transform="matrix(0.4996 0.8663 -0.8663 0.4996 37.1816 -32.863)" fill="#FFFFFF" width="2.686" height="7.038"/>
<rect x="39.816" y="6.356" transform="matrix(0.866 0.5001 -0.5001 0.866 10.4543 -19.259)" fill="#FFFFFF" width="2.686" height="7.038"/>
<path fill="#FFFFFF" d="M24.521,34.092"/>
</svg>
