<?xml version="1.0" encoding="utf-8"?>
<!-- Generator: Adobe Illustrator 16.0.0, SVG Export Plug-In . SVG Version: 6.00 Build 0)  -->
<!DOCTYPE svg PUBLIC "-//W3C//DTD SVG 1.1//EN" "http://www.w3.org/Graphics/SVG/1.1/DTD/svg11.dtd">
<svg version="1.1" id="All_Icons" xmlns="http://www.w3.org/2000/svg" xmlns:xlink="http://www.w3.org/1999/xlink" x="0px" y="0px"
	 width="57.5px" height="48px" viewBox="0 0 57.5 48" enable-background="new 0 0 57.5 48" xml:space="preserve">
<g>
	<path fill="#FFFFFF" d="M40.01,16.422c-0.426,0-0.848,0.037-1.262,0.11C37.771,12.048,33.773,8.679,29,8.679
		s-8.773,3.371-9.748,7.857c-0.412-0.073-0.834-0.114-1.262-0.114c-4.021,0-7.291,3.271-7.291,7.291c0,4.02,3.27,7.291,7.291,7.291
		h4.797V27.55H17.99c-2.115,0-3.838-1.721-3.838-3.837c0-2.116,1.723-3.837,3.838-3.837c1.404,0,2.695,0.766,3.369,1.999
		l3.029-1.658c-0.479-0.875-1.121-1.627-1.879-2.225c0.334-3.286,3.117-5.859,6.49-5.859c3.598,0,6.523,2.926,6.523,6.523
		c0,1.477-0.48,2.87-1.391,4.027h4.002c0.369-0.836,0.617-1.721,0.744-2.635c0.365-0.112,0.744-0.172,1.131-0.172
		c2.117,0,3.838,1.721,3.838,3.837c0,2.116-1.721,3.837-3.838,3.837h-5.135v3.454h5.135c4.021,0,7.291-3.271,7.291-7.291
		C47.301,19.693,44.031,16.422,40.01,16.422z"/>
	<g>
		
			<rect x="28.255" y="27.615" transform="matrix(0.9709 0.2395 -0.2395 0.9709 8.3712 -6.0373)" fill="#FFFFFF" width="1.535" height="7.609"/>
		
			<rect x="25.218" y="30.653" transform="matrix(0.7211 0.6928 -0.6928 0.7211 29.8638 -11.3447)" fill="#FFFFFF" width="7.608" height="1.534"/>
		
			<rect x="28.255" y="27.615" transform="matrix(0.2787 0.9604 -0.9604 0.2787 51.1099 -5.2088)" fill="#FFFFFF" width="1.535" height="7.609"/>
	</g>
	<g>
		
			<rect x="20.344" y="33.945" transform="matrix(0.9709 0.2395 -0.2395 0.9709 9.657 -3.958)" fill="#FFFFFF" width="1.535" height="7.609"/>
		
			<rect x="17.307" y="36.981" transform="matrix(0.7211 0.6929 -0.6929 0.7211 32.0445 -4.0976)" fill="#FFFFFF" width="7.609" height="1.536"/>
		
			<rect x="20.344" y="33.945" transform="matrix(0.2774 0.9608 -0.9608 0.2774 51.5223 6.9944)" fill="#FFFFFF" width="1.535" height="7.609"/>
	</g>
</g>
</svg>
