<?xml version="1.0" encoding="utf-8"?>
<!-- Generator: Adobe Illustrator 16.0.0, SVG Export Plug-In . SVG Version: 6.00 Build 0)  -->
<!DOCTYPE svg PUBLIC "-//W3C//DTD SVG 1.1//EN" "http://www.w3.org/Graphics/SVG/1.1/DTD/svg11.dtd">
<svg version="1.1" xmlns="http://www.w3.org/2000/svg" xmlns:xlink="http://www.w3.org/1999/xlink" x="0px" y="0px" width="31.5px"
	 height="29.5px" viewBox="0 0 31.5 29.5" enable-background="new 0 0 31.5 29.5" xml:space="preserve">
<g id="Circle">
	<g id="Layer_3" display="none">
		<rect x="-228.875" y="-172.5" display="inline" width="437" height="404"/>
	</g>
	<g id="Layer_1_1_" display="none">
	</g>
	<g id="Layer_2">
		<g>
			<circle fill="none" stroke="#FFFFFF" stroke-miterlimit="10" cx="15.75" cy="14.75" r="7.5"/>
		</g>
	</g>
</g>
<g id="SWW">
	<g>
		<g>
			<line fill="none" stroke="#FFFFFF" stroke-width="2" stroke-miterlimit="10" x1="4.312" y1="21.354" x2="9.255" y2="18.5"/>
			<g>
				<polygon fill="#FFFFFF" points="9.227,23.239 9.451,22.264 4.645,21.163 6.094,16.449 5.137,16.156 3.374,21.897 				"/>
			</g>
		</g>
	</g>
</g>
<g id="W" display="none">
	<g display="inline">
		<g>
			<line fill="none" stroke="#FFFFFF" stroke-width="2" stroke-miterlimit="10" x1="2.542" y1="14.75" x2="8.25" y2="14.75"/>
			<g>
				<polygon fill="#FFFFFF" points="5.856,18.84 6.538,18.107 2.926,14.751 6.538,11.394 5.856,10.661 1.458,14.751 				"/>
			</g>
		</g>
	</g>
</g>
<g id="NWW" display="none">
	<g display="inline">
		<g>
			<line fill="none" stroke="#FFFFFF" stroke-width="2" stroke-miterlimit="10" x1="4.312" y1="8.146" x2="9.255" y2="11"/>
			<g>
				<polygon fill="#FFFFFF" points="5.137,13.345 6.094,13.052 4.644,8.339 9.451,7.237 9.226,6.262 3.373,7.605 				"/>
			</g>
		</g>
	</g>
</g>
<g id="NNW" display="none">
	<g display="inline">
		<g>
			<line fill="none" stroke="#FFFFFF" stroke-width="2" stroke-miterlimit="10" x1="9.146" y1="3.313" x2="12" y2="8.255"/>
			<g>
				<polygon fill="#FFFFFF" points="7.261,8.227 8.237,8.451 9.338,3.645 14.051,5.095 14.344,4.138 8.604,2.374 				"/>
			</g>
		</g>
	</g>
</g>
</svg>
